<svg xmlns="http://www.w3.org/2000/svg" width="30" height="30" viewBox="0 0 30 30" fill="none">
  <path d="M17 2.5C15.3584 2.5 13.733 2.82332 12.2164 3.45151C10.6998 4.07969 9.32185 5.00043 8.16112 6.16117C5.81692 8.50537 4.49995 11.6848 4.49995 15C4.48903 17.8864 5.48845 20.6857 7.32495 22.9125L4.82495 25.4125C4.65151 25.5883 4.53401 25.8115 4.48729 26.054C4.44058 26.2965 4.46673 26.5474 4.56245 26.775C4.66628 26.9999 4.83458 27.1889 5.04601 27.318C5.25744 27.4471 5.50246 27.5104 5.74995 27.5H17C20.3152 27.5 23.4946 26.183 25.8388 23.8388C28.183 21.4946 29.5 18.3152 29.5 15C29.5 11.6848 28.183 8.50537 25.8388 6.16117C23.4946 3.81696 20.3152 2.5 17 2.5ZM17 25H8.76245L9.92495 23.8375C10.1578 23.6033 10.2884 23.2865 10.2884 22.9562C10.2884 22.626 10.1578 22.3092 9.92495 22.075C8.28819 20.4401 7.26892 18.2882 7.04082 15.986C6.81271 13.6838 7.38988 11.3738 8.67399 9.4494C9.95809 7.52505 11.8697 6.10545 14.0831 5.43247C16.2965 4.75948 18.6748 4.87476 20.8127 5.75864C22.9507 6.64253 24.716 8.24034 25.808 10.2799C26.9 12.3194 27.251 14.6744 26.8014 16.9438C26.3517 19.2131 25.1291 21.2563 23.3419 22.7253C21.5547 24.1943 19.3134 24.9982 17 25ZM23.25 13.75H10.75C10.4184 13.75 10.1005 13.8817 9.86607 14.1161C9.63165 14.3505 9.49995 14.6685 9.49995 15C9.49995 15.3315 9.63165 15.6495 9.86607 15.8839C10.1005 16.1183 10.4184 16.25 10.75 16.25H23.25C23.5815 16.25 23.8994 16.1183 24.1338 15.8839C24.3683 15.6495 24.5 15.3315 24.5 15C24.5 14.6685 24.3683 14.3505 24.1338 14.1161C23.8994 13.8817 23.5815 13.75 23.25 13.75ZM20.75 18.75H13.25C12.9184 18.75 12.6005 18.8817 12.3661 19.1161C12.1317 19.3505 12 19.6685 12 20C12 20.3315 12.1317 20.6495 12.3661 20.8839C12.6005 21.1183 12.9184 21.25 13.25 21.25H20.75C21.0815 21.25 21.3994 21.1183 21.6338 20.8839C21.8683 20.6495 22 20.3315 22 20C22 19.6685 21.8683 19.3505 21.6338 19.1161C21.3994 18.8817 21.0815 18.75 20.75 18.75ZM13.25 11.25H20.75C21.0815 11.25 21.3994 11.1183 21.6338 10.8839C21.8683 10.6495 22 10.3315 22 10C22 9.66848 21.8683 9.35054 21.6338 9.11612C21.3994 8.8817 21.0815 8.75 20.75 8.75H13.25C12.9184 8.75 12.6005 8.8817 12.3661 9.11612C12.1317 9.35054 12 9.66848 12 10C12 10.3315 12.1317 10.6495 12.3661 10.8839C12.6005 11.1183 12.9184 11.25 13.25 11.25Z" fill="#ABABAB"/>
</svg>