<svg xmlns="http://www.w3.org/2000/svg" width="29" height="29" viewBox="0 0 29 29" fill="none">
  <path d="M19.9375 1.8125H9.0625C8.34144 1.8125 7.64992 2.09894 7.14005 2.6088C6.63019 3.11867 6.34375 3.81019 6.34375 4.53125V24.4688C6.34375 25.1898 6.63019 25.8813 7.14005 26.3912C7.64992 26.9011 8.34144 27.1875 9.0625 27.1875H19.9375C20.6586 27.1875 21.3501 26.9011 21.8599 26.3912C22.3698 25.8813 22.6562 25.1898 22.6562 24.4688V4.53125C22.6562 3.81019 22.3698 3.11867 21.8599 2.6088C21.3501 2.09894 20.6586 1.8125 19.9375 1.8125ZM8.15625 7.25H20.8438V21.75H8.15625V7.25ZM9.0625 3.625H19.9375C20.1779 3.625 20.4084 3.72048 20.5783 3.89043C20.7483 4.06039 20.8438 4.2909 20.8438 4.53125V5.4375H8.15625V4.53125C8.15625 4.2909 8.25173 4.06039 8.42168 3.89043C8.59164 3.72048 8.82215 3.625 9.0625 3.625ZM19.9375 25.375H9.0625C8.82215 25.375 8.59164 25.2795 8.42168 25.1096C8.25173 24.9396 8.15625 24.7091 8.15625 24.4688V23.5625H20.8438V24.4688C20.8438 24.7091 20.7483 24.9396 20.5783 25.1096C20.4084 25.2795 20.1779 25.375 19.9375 25.375Z" fill="black"/>
</svg>