<svg xmlns="http://www.w3.org/2000/svg" width="27" height="27" viewBox="0 0 27 27" fill="none">
  <path d="M13.5 19.125C14.0967 19.125 14.669 18.8879 15.091 18.466C15.5129 18.044 15.75 17.4717 15.75 16.875C15.75 16.2783 15.5129 15.706 15.091 15.284C14.669 14.8621 14.0967 14.625 13.5 14.625C12.9033 14.625 12.331 14.8621 11.909 15.284C11.4871 15.706 11.25 16.2783 11.25 16.875C11.25 17.4717 11.4871 18.044 11.909 18.466C12.331 18.8879 12.9033 19.125 13.5 19.125ZM20.25 9C20.8467 9 21.419 9.23705 21.841 9.65901C22.2629 10.081 22.5 10.6533 22.5 11.25V22.5C22.5 23.0967 22.2629 23.669 21.841 24.091C21.419 24.5129 20.8467 24.75 20.25 24.75H6.75C6.15326 24.75 5.58097 24.5129 5.15901 24.091C4.73705 23.669 4.5 23.0967 4.5 22.5V11.25C4.5 10.6533 4.73705 10.081 5.15901 9.65901C5.58097 9.23705 6.15326 9 6.75 9H7.875V6.75C7.875 5.25816 8.46763 3.82742 9.52252 2.77252C10.5774 1.71763 12.0082 1.125 13.5 1.125C14.2387 1.125 14.9701 1.27049 15.6526 1.55318C16.3351 1.83586 16.9551 2.25019 17.4775 2.77252C17.9998 3.29485 18.4141 3.91495 18.6968 4.59741C18.9795 5.27986 19.125 6.01131 19.125 6.75V9H20.25ZM13.5 3.375C12.6049 3.375 11.7464 3.73058 11.1135 4.36351C10.4806 4.99645 10.125 5.85489 10.125 6.75V9H16.875V6.75C16.875 5.85489 16.5194 4.99645 15.8865 4.36351C15.2536 3.73058 14.3951 3.375 13.5 3.375Z" fill="black"/>
</svg>