<svg
                  xmlns="http://www.w3.org/2000/svg"
                  width="27"
                  height="27"
                  viewBox="0 0 27 27"
                  fill="none"
                >
                  <path
                    d="M7.79499 16.2541C7.59963 16.0587 7.50195 15.8101 7.50195 15.5082C7.50195 15.2063 7.59963 14.9576 7.79499 14.7623L12.6966 9.86063C12.8032 9.75407 12.9186 9.67877 13.0429 9.63473C13.1673 9.59068 13.3005 9.56831 13.4425 9.5676C13.5846 9.5676 13.7224 9.59424 13.856 9.64751C13.9895 9.70079 14.1003 9.77183 14.1884 9.86063L19.0901 14.7623C19.2854 14.9576 19.3831 15.2063 19.3831 15.5082C19.3831 15.8101 19.2854 16.0587 19.0901 16.2541C18.8947 16.4494 18.6461 16.5471 18.3442 16.5471C18.0423 16.5471 17.7936 16.4494 17.5983 16.2541L13.4425 12.0983L9.28679 16.2541C9.09143 16.4494 8.8428 16.5471 8.54089 16.5471C8.23897 16.5471 7.99034 16.4494 7.79499 16.2541Z"
                    fill="#36416A"
                  />
                </svg>