<svg xmlns="http://www.w3.org/2000/svg" width="37" height="37" viewBox="0 0 37 37" fill="none">
  <path d="M18.5 6.16666C20.1355 6.16666 21.704 6.81636 22.8605 7.97284C24.017 9.12931 24.6667 10.6978 24.6667 12.3333C24.6667 13.9688 24.017 15.5373 22.8605 16.6938C21.704 17.8503 20.1355 18.5 18.5 18.5C16.8645 18.5 15.296 17.8503 14.1395 16.6938C12.983 15.5373 12.3333 13.9688 12.3333 12.3333C12.3333 10.6978 12.983 9.12931 14.1395 7.97284C15.296 6.81636 16.8645 6.16666 18.5 6.16666ZM18.5 21.5833C25.3142 21.5833 30.8333 24.3429 30.8333 27.75V30.8333H6.16666V27.75C6.16666 24.3429 11.6858 21.5833 18.5 21.5833Z" fill="black"/>
</svg>